<svg width="84" height="97" viewBox="0 0 84 97" fill="none" xmlns="http://www.w3.org/2000/svg">
<path d="M32.1507 0C32.1507 0 35.2025 2.08308 37.3428 3.06417C39.3877 4.00156 42.7902 4.93672 42.7902 4.93672C42.7902 4.93672 42.1793 12.2112 43.2158 16.6827C44.3976 21.7809 46.0724 24.4337 49.0037 28.7691C49.7894 29.9312 50.2279 30.5902 51.1316 31.6631C52.5854 33.3893 55.3022 35.6635 55.3022 35.6635L59.4729 38.8979C59.4729 38.8979 52.6207 34.6707 49.0037 31.0673C45.6454 27.7216 41.5986 21.4492 41.5986 21.4492C41.5986 21.4492 38.105 15.0708 36.2363 10.8097C34.4238 6.67678 32.1507 0 32.1507 0Z" fill="black"/>
<path d="M18.6173 83.3284C18.6173 83.3284 27.8703 81.816 33.4275 79.6684C44.1719 75.5161 49.7262 71.1314 57.5153 62.6452C63.4564 56.1724 83.3905 6.04321 83.3905 6.04321L72.5808 39.2384C67.0297 48.9776 63.9175 54.4381 58.3664 64.1773L46.3651 76.8596L37.513 85.8819L27.214 93.372C27.214 93.372 22.6616 95.4779 19.6387 95.1595C16.0425 94.7806 11.5524 90.6483 11.5524 90.6483L0.487314 77.5405C0.487314 77.5405 5.46737 83.2408 9.85042 84.1795C13.2139 84.8999 18.6173 83.3284 18.6173 83.3284Z" fill="black"/>
<path d="M44.4925 85.4563C44.4925 85.4563 48.5341 88.2322 51.472 88.2651C55.1435 88.3061 59.8985 84.0944 59.8985 84.0944C59.8985 84.0944 68.9097 75.0287 73.0914 68.0926C78.1434 59.7132 82.0286 44.6858 82.0286 44.6858C82.0286 44.6858 80.0077 55.6765 77.2621 62.2196C74.5533 68.6752 72.0885 71.8626 68.2398 77.7107C63.6349 84.7079 55.3022 94.819 55.3022 94.819L51.472 96.7767C51.472 96.7767 48.6615 97.0338 47.2162 96.1809C45.5168 95.178 44.8664 94.4744 44.1521 92.8613C43.6584 91.7467 43.7384 90.6866 43.5562 89.7972C43.2082 88.0982 44.4925 85.4563 44.4925 85.4563Z" fill="black"/>
</svg>
